<svg width="330" height="407" viewBox="0 0 330 407" fill="none" xmlns="http://www.w3.org/2000/svg">
<g clip-path="url(#clip0_303_2)">
<path d="M322.764 0H7.01361C3.1401 0 0 3.1401 0 7.01361V398.994C0 402.867 3.1401 406.007 7.01361 406.007H322.764C326.638 406.007 329.778 402.867 329.778 398.994V7.01361C329.778 3.1401 326.638 0 322.764 0Z" fill="#EEEEEE"/>
<path d="M148.686 106.723L85.6447 125.209C81.1945 126.514 78.6448 131.179 79.9497 135.629L100.681 206.329C101.986 210.779 106.651 213.328 111.101 212.023L174.143 193.538C178.593 192.233 181.143 187.567 179.838 183.117L159.107 112.418C157.802 107.968 153.136 105.418 148.686 106.723Z" fill="#9F9F9F"/>
<path d="M238.121 93.938L143.454 66.2187C141.018 65.5054 138.465 66.902 137.752 69.3381L107.747 171.809C107.034 174.245 108.431 176.798 110.867 177.511L205.534 205.231C207.97 205.944 210.523 204.547 211.236 202.111L241.24 99.6406C241.954 97.2044 240.557 94.6513 238.121 93.938Z" fill="url(#paint0_linear_303_2)" stroke="white" stroke-width="5.398" stroke-linecap="round" stroke-linejoin="round"/>
<path d="M228.895 102.237L147.521 78.4097L125.688 152.973L207.063 176.801L228.895 102.237Z" fill="#CCCCCC" stroke="white" stroke-width="2.25674" stroke-linecap="round" stroke-linejoin="round"/>
<path d="M228.895 102.237L147.521 78.4097L137.332 113.206L218.707 137.033L228.895 102.237Z" fill="white" stroke="white" stroke-width="2.25674" stroke-linecap="round" stroke-linejoin="round"/>
<path fill-rule="evenodd" clip-rule="evenodd" d="M142.303 114.662L151.273 107.657L163.494 103.11L165.225 106.959L169.357 101.209L170.861 101.113L174.435 97.0848L195.528 135.644" fill="#CCCCCC"/>
<path d="M142.303 114.662L151.273 107.657L163.494 103.11L165.225 106.959L169.357 101.209L170.861 101.113L174.435 97.0848L195.528 135.644" stroke="white" stroke-width="2.25674" stroke-linecap="round" stroke-linejoin="round"/>
<path fill-rule="evenodd" clip-rule="evenodd" d="M174.435 97.0848C174.314 100.013 174.108 102.938 173.819 105.855C173.6 108.068 173.332 110.277 173.016 112.479L169.707 110.222L163.494 103.11L162.124 111.061L160.653 115.09L160.845 120.611L173.542 122.214L188.496 122.791L184.333 107.641L182.001 109.645L178.58 104.663L174.435 97.0848Z" fill="#B3B3B3" stroke="white" stroke-width="2.25674" stroke-linecap="round" stroke-linejoin="round"/>
<path fill-rule="evenodd" clip-rule="evenodd" d="M160.731 125.455L177.912 117.096L181.448 116.389L187.511 110.215L192.863 107.878L213.955 146.437" fill="#CCCCCC"/>
<path d="M160.731 125.455L177.912 117.096L181.448 116.389L187.511 110.215L192.863 107.878L213.955 146.437" stroke="white" stroke-width="2.25674" stroke-linecap="round" stroke-linejoin="round"/>
<path fill-rule="evenodd" clip-rule="evenodd" d="M192.863 107.878L194.893 123.029L193.432 128.018L191.971 133.007L194.748 137.322C196.142 136.57 197.664 136.056 199.229 135.809C202.025 135.368 204.875 135.778 207.705 135.84C208.855 135.866 210.031 135.828 211.105 135.42C211.379 135.316 211.644 135.188 211.896 135.039L206.925 133.584L202.178 124.899L199.604 115.344L197.477 116.311L192.863 107.878Z" fill="#B3B3B3" stroke="white" stroke-width="2.25674" stroke-linecap="round" stroke-linejoin="round"/>
<path fill-rule="evenodd" clip-rule="evenodd" d="M150.542 160.251C150.939 158.64 149.935 156.906 154.867 156C160.919 154.89 177.469 156.162 182.989 153.443C187.073 151.432 173.149 143.785 176.739 140.986C178.366 139.716 187.49 140.541 191.819 139.955C195.923 139.399 195.289 137.408 198.477 136.512C201.557 135.646 210.762 136.552 211.895 135.039C209.659 136.277 199.5 135.08 195.527 135.644C191.334 136.238 191.003 137.904 185.906 138.131C180.415 138.374 170.138 137.211 167.407 138.204C161.686 140.283 173.105 147.536 167.181 148.932C159.158 150.822 140.335 148.86 132.114 149.458C126.433 149.872 126.546 151.021 125.687 152.974" fill="white"/>
<path d="M150.542 160.251C150.939 158.64 149.935 156.906 154.867 156C160.919 154.89 177.469 156.162 182.989 153.443C187.073 151.432 173.149 143.785 176.739 140.986C178.366 139.716 187.49 140.541 191.819 139.955C195.923 139.399 195.289 137.408 198.477 136.512C201.557 135.646 210.762 136.552 211.895 135.039C209.659 136.277 199.5 135.08 195.527 135.644C191.334 136.238 191.003 137.904 185.906 138.131C180.415 138.374 170.138 137.211 167.407 138.204C161.686 140.283 173.105 147.536 167.181 148.932C159.158 150.822 140.335 148.86 132.114 149.458C126.433 149.872 126.546 151.021 125.687 152.974" stroke="white" stroke-width="2.25674" stroke-linecap="round" stroke-linejoin="round"/>
<path d="M183.404 287.335H178.716L169.591 272.366V287.335H164.904V264.585H169.591L178.732 279.585V264.585H183.404V287.335ZM206.185 276.475C206.185 278.715 205.789 280.678 204.998 282.366C204.206 284.053 203.07 285.356 201.591 286.272C200.123 287.189 198.435 287.647 196.529 287.647C194.643 287.647 192.961 287.194 191.482 286.288C190.003 285.382 188.857 284.09 188.044 282.413C187.232 280.725 186.82 278.788 186.81 276.6V275.475C186.81 273.236 187.211 271.267 188.013 269.569C188.826 267.861 189.966 266.553 191.435 265.647C192.914 264.731 194.602 264.272 196.498 264.272C198.393 264.272 200.076 264.731 201.544 265.647C203.024 266.553 204.164 267.861 204.966 269.569C205.779 271.267 206.185 273.231 206.185 275.46V276.475ZM201.435 275.444C201.435 273.059 201.008 271.246 200.154 270.007C199.3 268.767 198.081 268.147 196.498 268.147C194.925 268.147 193.711 268.762 192.857 269.991C192.003 271.21 191.57 273.001 191.56 275.366V276.475C191.56 278.798 191.987 280.6 192.841 281.882C193.695 283.163 194.925 283.803 196.529 283.803C198.102 283.803 199.31 283.189 200.154 281.96C200.998 280.72 201.425 278.918 201.435 276.553V275.444ZM222.544 287.335H217.857V264.585H222.544V287.335ZM233.029 264.585L238.873 281.085L244.685 264.585H250.841V287.335H246.138V281.116L246.607 270.382L240.466 287.335H237.248L231.123 270.397L231.591 281.116V287.335H226.904V264.585H233.029ZM268.06 282.647H259.841L258.279 287.335H253.294L261.763 264.585H266.107L274.623 287.335H269.638L268.06 282.647ZM261.107 278.85H266.794L263.935 270.335L261.107 278.85ZM294.404 284.46C293.56 285.47 292.367 286.257 290.826 286.819C289.284 287.371 287.576 287.647 285.701 287.647C283.732 287.647 282.003 287.22 280.513 286.366C279.034 285.501 277.888 284.251 277.076 282.616C276.274 280.981 275.862 279.059 275.841 276.85V275.303C275.841 273.033 276.222 271.069 276.982 269.413C277.753 267.746 278.857 266.475 280.294 265.6C281.742 264.715 283.435 264.272 285.373 264.272C288.07 264.272 290.18 264.918 291.701 266.21C293.222 267.491 294.123 269.361 294.404 271.819H289.841C289.633 270.517 289.169 269.564 288.451 268.96C287.742 268.356 286.763 268.053 285.513 268.053C283.919 268.053 282.706 268.652 281.873 269.85C281.039 271.048 280.617 272.83 280.607 275.194V276.647C280.607 279.033 281.06 280.835 281.966 282.053C282.873 283.272 284.201 283.882 285.951 283.882C287.711 283.882 288.966 283.507 289.716 282.757V278.835H285.451V275.382H294.404V284.46ZM311.904 277.475H302.904V283.569H313.466V287.335H298.216V264.585H313.435V268.382H302.904V273.803H311.904V277.475ZM329.388 281.397H319.857L317.716 287.335H314.623L323.31 264.585H325.935L334.638 287.335H331.56L329.388 281.397ZM320.763 278.928H328.498L324.623 268.288L320.763 278.928ZM343.857 283.35L350.357 264.585H353.638L345.201 287.335H342.544L334.123 264.585H337.388L343.857 283.35ZM368.076 281.397H358.544L356.404 287.335H353.31L361.998 264.585H364.623L373.326 287.335H370.248L368.076 281.397ZM359.451 278.928H367.185L363.31 268.288L359.451 278.928ZM379.607 287.335H376.607V264.585H379.607V287.335ZM388.123 284.882H398.904V287.335H385.107V264.585H388.123V284.882ZM415.201 281.397H405.669L403.529 287.335H400.435L409.123 264.585H411.748L420.451 287.335H417.373L415.201 281.397ZM406.576 278.928H414.31L410.435 268.288L406.576 278.928ZM423.513 287.335V264.585H430.951C433.419 264.585 435.274 265.095 436.513 266.116C437.763 267.137 438.388 268.647 438.388 270.647C438.388 271.71 438.086 272.652 437.482 273.475C436.878 274.288 436.055 274.918 435.013 275.366C436.242 275.71 437.211 276.366 437.919 277.335C438.638 278.293 438.998 279.439 438.998 280.772C438.998 282.814 438.336 284.418 437.013 285.585C435.69 286.751 433.82 287.335 431.404 287.335H423.513ZM426.513 276.694V284.882H431.466C432.862 284.882 433.961 284.522 434.763 283.803C435.576 283.074 435.982 282.074 435.982 280.803C435.982 278.064 434.492 276.694 431.513 276.694H426.513ZM426.513 274.288H431.044C432.357 274.288 433.404 273.96 434.185 273.303C434.977 272.647 435.373 271.757 435.373 270.632C435.373 269.382 435.008 268.475 434.279 267.913C433.55 267.34 432.44 267.053 430.951 267.053H426.513V274.288ZM446.466 284.882H457.248V287.335H443.451V264.585H446.466V284.882ZM473.529 276.819H463.669V284.882H475.123V287.335H460.669V264.585H474.966V267.053H463.669V274.366H473.529V276.819Z" fill="#767676"/>
</g>
<defs>
<linearGradient id="paint0_linear_303_2" x1="202.454" y1="89.0203" x2="172.198" y2="186.628" gradientUnits="userSpaceOnUse">
<stop stop-color="#C2C2C2"/>
<stop offset="1" stop-color="#9F9F9F"/>
</linearGradient>
<clipPath id="clip0_303_2">
<rect width="329.778" height="406.007" fill="white"/>
</clipPath>
</defs>
</svg>
